HIERARCHY
ROOT hip
{
  OFFSET 57.7899 83.6053 105.283
  CHANNELS 6 Xposition Yposition Zposition Zrotation Xrotation Yrotation
  JOINT abdomen
  {
    OFFSET 0 20.6881 -0.73152
    CHANNELS 3 Zrotation Xrotation Yrotation
    JOINT chest
    {
      OFFSET 0 11.7043 -0.48768
      CHANNELS 3 Zrotation Xrotation Yrotation
      JOINT neck
      {
        OFFSET 0 22.1894 -2.19456
        CHANNELS 3 Zrotation Xrotation Yrotation
        JOINT head
        {
          OFFSET -0.24384 7.07133 1.2192
          CHANNELS 3 Zrotation Xrotation Yrotation
          JOINT leftEye
          {
            OFFSET 4.14528 8.04674 8.04672
            CHANNELS 3 Zrotation Xrotation Yrotation
            End Site
            {
              OFFSET 1 0 0
            }
          }
          JOINT rightEye
          {
            OFFSET -3.6576 8.04674 8.04672
            CHANNELS 3 Zrotation Xrotation Yrotation
            End Site
            {
              OFFSET 1 0 0
            }
          }
        }
      }
      JOINT rCollar
      {
        OFFSET -2.68224 19.2634 -4.8768
        CHANNELS 3 Zrotation Xrotation Yrotation
        JOINT rShldr
        {
          OFFSET -8.77824 -1.95073 1.46304
          CHANNELS 3 Zrotation Xrotation Yrotation
          JOINT rForeArm
          {
            OFFSET -28.1742 -1.7115 0.48768
            CHANNELS 3 Zrotation Xrotation Yrotation
            JOINT rHand
            {
              OFFSET -22.5879 0.773209 7.07136
              CHANNELS 3 Zrotation Xrotation Yrotation
              JOINT rThumb1
              {
                OFFSET -1.2192 -0.487915 3.41376
                CHANNELS 3 Zrotation Xrotation Yrotation
                JOINT rThumb2
                {
                  OFFSET -3.37035 -0.52449 3.41376
                  CHANNELS 3 Zrotation Xrotation Yrotation
                  End Site
                  {
                    OFFSET -1.78271 -1.18214 1.43049
                  }
                }
              }
              JOINT rIndex1
              {
                OFFSET -7.75947 0.938293 5.60832
                CHANNELS 3 Zrotation Xrotation Yrotation
                JOINT rIndex2
                {
                  OFFSET -2.54057 -0.884171 1.56538
                  CHANNELS 3 Zrotation Xrotation Yrotation
                  End Site
                  {
                    OFFSET -1.62519 -0.234802 1.16502
                  }
                }
              }
              JOINT rMid1
              {
                OFFSET -8.24714 1.18213 3.41376
                CHANNELS 3 Zrotation Xrotation Yrotation
                JOINT rMid2
                {
                  OFFSET -3.10165 -0.590103 1.0647
                  CHANNELS 3 Zrotation Xrotation Yrotation
                  End Site
                  {
                    OFFSET -2.48547 -0.328903 0.83742
                  }
                }
              }
              JOINT rRing1
              {
                OFFSET -8.82822 0.546677 1.51678
                CHANNELS 3 Zrotation Xrotation Yrotation
                JOINT rRing2
                {
                  OFFSET -2.60934 -0.819778 -0.0198488
                  CHANNELS 3 Zrotation Xrotation Yrotation
                  End Site
                  {
                    OFFSET -2.33842 -0.294052 0.168128
                  }
                }
              }
              JOINT rPinky1
              {
                OFFSET -8.27202 -0.0477905 -0.4584
                CHANNELS 3 Zrotation Xrotation Yrotation
                JOINT rPinky2
                {
                  OFFSET -1.82734 -0.647385 -0.700984
                  CHANNELS 3 Zrotation Xrotation Yrotation
                  End Site
                  {
                    OFFSET -1.69225 -0.51767 -0.607171
                  }
                }
              }
            }
          }
        }
      }
      JOINT lCollar
      {
        OFFSET 2.68224 19.2634 -4.8768
        CHANNELS 3 Zrotation Xrotation Yrotation
        JOINT lShldr
        {
          OFFSET 8.77824 -1.95073 1.46304
          CHANNELS 3 Zrotation Xrotation Yrotation
          JOINT lForeArm
          {
            OFFSET 28.1742 -1.7115 0.48768
            CHANNELS 3 Zrotation Xrotation Yrotation
            JOINT lHand
            {
              OFFSET 22.5879 0.773209 7.07136
              CHANNELS 3 Zrotation Xrotation Yrotation
              JOINT lThumb1
              {
                OFFSET 1.2192 -0.487915 3.41376
                CHANNELS 3 Zrotation Xrotation Yrotation
                JOINT lThumb2
                {
                  OFFSET 3.37035 -0.52449 3.41376
                  CHANNELS 3 Zrotation Xrotation Yrotation
                  End Site
                  {
                    OFFSET 1.78271 -1.18214 1.43049
                  }
                }
              }
              JOINT lIndex1
              {
                OFFSET 7.75947 0.938293 5.60832
                CHANNELS 3 Zrotation Xrotation Yrotation
                JOINT lIndex2
                {
                  OFFSET 2.54057 -0.884171 1.56538
                  CHANNELS 3 Zrotation Xrotation Yrotation
                  End Site
                  {
                    OFFSET 1.62519 -0.234802 1.16502
                  }
                }
              }
              JOINT lMid1
              {
                OFFSET 8.24714 1.18213 3.41376
                CHANNELS 3 Zrotation Xrotation Yrotation
                JOINT lMid2
                {
                  OFFSET 3.10165 -0.590103 1.0647
                  CHANNELS 3 Zrotation Xrotation Yrotation
                  End Site
                  {
                    OFFSET 2.48547 -0.328903 0.83742
                  }
                }
              }
              JOINT lRing1
              {
                OFFSET 8.82822 0.546677 1.51678
                CHANNELS 3 Zrotation Xrotation Yrotation
                JOINT lRing2
                {
                  OFFSET 2.60934 -0.819778 -0.0198488
                  CHANNELS 3 Zrotation Xrotation Yrotation
                  End Site
                  {
                    OFFSET 2.33842 -0.294052 0.168128
                  }
                }
              }
              JOINT lPinky1
              {
                OFFSET 8.27202 -0.0477905 -0.4584
                CHANNELS 3 Zrotation Xrotation Yrotation
                JOINT lPinky2
                {
                  OFFSET 1.82734 -0.647385 -0.700984
                  CHANNELS 3 Zrotation Xrotation Yrotation
                  End Site
                  {
                    OFFSET 1.69225 -0.51767 -0.607171
                  }
                }
              }
            }
          }
        }
      }
    }
  }
  JOINT rButtock
  {
    OFFSET -8.77824 4.35084 1.2192
    CHANNELS 3 Zrotation Xrotation Yrotation
    JOINT rThigh
    {
      OFFSET 0 -1.70687 -2.19456
      CHANNELS 3 Zrotation Xrotation Yrotation
      JOINT rShin
      {
        OFFSET 0 -36.8199 0.73152
        CHANNELS 3 Zrotation Xrotation Yrotation
        JOINT rFoot
        {
          OFFSET 0.73152 -45.1104 -5.12064
          CHANNELS 3 Zrotation Xrotation Yrotation
          End Site
          {
            OFFSET -1.1221 -3.69964 12.103
          }
        }
      }
    }
  }
  JOINT lButtock
  {
    OFFSET 8.77824 4.35084 1.2192
    CHANNELS 3 Zrotation Xrotation Yrotation
    JOINT lThigh
    {
      OFFSET 0 -1.70687 -2.19456
      CHANNELS 3 Zrotation Xrotation Yrotation
      JOINT lShin
      {
        OFFSET 0 -36.8199 0.73152
        CHANNELS 3 Zrotation Xrotation Yrotation
        JOINT lFoot
        {
          OFFSET -0.73152 -45.1104 -5.12064
          CHANNELS 3 Zrotation Xrotation Yrotation
          End Site
          {
            OFFSET 1.1221 -3.69964 12.103
          }
        }
      }
    }
  }
}
MOTION
Frames:	5
Frame Time:	0.00833333
58.3062 110.92 105.015 10.8569 21.8574 -38.4792 -5.19732 -30.4989 -3.67236 3.09459 8.40376 -0.775392 -4.61503 17.2018 -0.0107823 10.4832 -20.206 1.86614 -0 0 0 -0 0 0 8.51682e-015 -7.07391e-014 -3.08411e-013 88.3075 34.9603 -20.1963 -22.2823 -16.1876 44.5567 -0.0273509 -4.70903 -0.663325 -4.27321e-010 2.18998e-009 -4.10622e-010 -7.36279e-010 3.79391e-009 -7.12896e-010 -4.27314e-010 2.18998e-009 -4.10626e-010 7.73091 5.47488 0.417314 -4.27319e-010 2.18997e-009 -4.10624e-010 2.90554 0.965183 0.102902 -4.27319e-010 2.18997e-009 -4.10626e-010 10.2786 0.731801 0.0259123 -4.27326e-010 2.18997e-009 -4.10624e-010 2.22167 -0.733487 -0.20892 8.38971e-015 -7.0734e-014 -3.08638e-013 -37.862 56.1531 -30.4884 23.3509 -17.9318 -47.6152 0.00609255 -2.30784 0.324504 -5.44452e-010 -5.76238e-009 1.69512e-009 -9.44123e-010 -9.97555e-009 2.93436e-009 -5.44462e-010 -5.76239e-009 1.69512e-009 -7.73091 5.47488 -0.417314 -5.44454e-010 -5.76239e-009 1.69512e-009 -2.90554 0.965183 -0.102902 -5.44456e-010 -5.76239e-009 1.69511e-009 -10.2786 0.731801 -0.0259123 -5.44447e-010 -5.76238e-009 1.6951e-009 -2.22167 -0.733487 0.20892 -2.03217e-016 0 -3.88251e-019 1.40802 -37.921 15.4953 -0.0755752 21.6102 0.222579 0.365864 11.0651 -6.20811 2.03217e-016 0 3.88251e-019 -5.26483 -52.7521 -10.842 0.294728 35.6019 -0.361446 -1.71621 22.8769 6.62722 
58.2923 110.41 105.301 12.0359 20.8988 -41.5502 -5.31314 -30.5963 -3.87184 3.2296 8.45776 -0.821898 -4.67517 17.1344 -0.00788428 10.5001 -20.2024 1.88703 -0 0 0 -0 0 0 1.33628e-013 -2.35955e-013 -8.45925e-013 87.8228 34.9843 -20.0962 -22.1578 -15.9963 44.2175 -0.0250135 -4.50155 -0.633975 -6.44796e-010 4.50046e-009 -9.99697e-010 -1.10516e-009 7.79261e-009 -1.73529e-009 -6.44792e-010 4.50046e-009 -9.997e-010 7.73091 5.47488 0.417314 -6.44795e-010 4.50046e-009 -9.99695e-010 2.90554 0.965183 0.102902 -6.44793e-010 4.50046e-009 -9.99698e-010 10.2786 0.731801 0.0259123 -6.44802e-010 4.50046e-009 -9.99696e-010 2.22167 -0.733487 -0.20892 1.33539e-013 -2.35952e-013 -8.46164e-013 -37.7367 55.2356 -29.0885 23.2819 -17.8127 -47.4107 0.00424159 -1.90991 0.268512 -1.17721e-009 -8.08799e-009 4.50216e-009 -2.04538e-009 -1.401e-008 7.79547e-009 -1.17722e-009 -8.088e-009 4.50218e-009 -7.73091 5.47488 -0.417314 -1.17721e-009 -8.088e-009 4.50217e-009 -2.90554 0.965183 -0.102902 -1.17721e-009 -8.088e-009 4.50217e-009 -10.2786 0.731801 -0.0259123 -1.17721e-009 -8.08799e-009 4.50215e-009 -2.22167 -0.733487 0.20892 -2.03217e-016 0 -3.88251e-019 1.6727 -37.635 15.8069 -0.0735113 21.6224 0.226625 0.287689 10.6595 -5.92316 2.03217e-016 0 3.88251e-019 -4.8643 -52.6763 -10.382 0.317649 36.7431 -0.363293 -2.1184 23.5086 7.64977 
58.296 109.851 105.604 13.0237 19.9844 -44.4854 -5.58677 -30.6897 -4.09423 3.3458 8.51642 -0.860727 -4.72542 17.0892 -0.000941532 10.5158 -20.2029 1.91469 -0 0 0 -0 0 0 1.75913e-013 -2.54048e-013 -1.22759e-012 87.3916 34.9391 -19.9927 -22.0322 -15.8059 43.8768 -0.0222868 -4.25788 -0.599521 -4.67612e-010 5.80699e-009 -1.30644e-009 -7.94879e-010 1.00557e-008 -2.26842e-009 -4.67609e-010 5.80699e-009 -1.30645e-009 7.73091 5.47488 0.417314 -4.67611e-010 5.80698e-009 -1.30644e-009 2.90554 0.965183 0.102902 -4.67608e-010 5.80698e-009 -1.30644e-009 10.2786 0.731801 0.0259123 -4.67617e-010 5.80698e-009 -1.30644e-009 2.22167 -0.733487 -0.20892 1.75848e-013 -2.54046e-013 -1.22784e-012 -37.5469 54.363 -27.6761 23.2201 -17.7069 -47.2292 0.00365607 -1.72623 0.24268 -1.41222e-009 -9.27678e-009 6.26155e-009 -2.45672e-009 -1.60739e-008 1.08427e-008 -1.41223e-009 -9.2768e-009 6.26157e-009 -7.73091 5.47488 -0.417314 -1.41222e-009 -9.2768e-009 6.26156e-009 -2.90554 0.965183 -0.102902 -1.41222e-009 -9.27679e-009 6.26155e-009 -10.2786 0.731801 -0.0259123 -1.41221e-009 -9.27679e-009 6.26154e-009 -2.22167 -0.733487 0.20892 -2.03217e-016 0 -3.88251e-019 1.7646 -37.3463 15.8847 -0.0718491 21.6182 0.230919 0.185461 10.2663 -5.40203 2.03217e-016 0 3.88251e-019 -4.56924 -52.4825 -9.94702 0.33852 37.8089 -0.371315 -2.40654 24.1316 8.27001 
58.471 109.138 105.859 13.7751 19.152 -47.2785 -6.104 -30.7594 -4.35946 3.434 8.57696 -0.890436 -4.75883 17.0766 0.014215 10.5274 -20.2124 1.95679 -0 0 0 -0 0 0 7.72469e-014 1.48979e-015 -1.41971e-012 87.0228 34.7844 -19.8736 -21.9016 -15.6109 43.5225 -0.0189283 -3.94611 -0.555464 4.7557e-010 5.5971e-009 -1.1683e-009 8.3488e-010 9.6985e-009 -2.03115e-009 4.75572e-010 5.59711e-009 -1.1683e-009 7.73091 5.47488 0.417314 4.7557e-010 5.5971e-009 -1.16829e-009 2.90554 0.965183 0.102902 4.75574e-010 5.5971e-009 -1.1683e-009 10.2786 0.731801 0.0259123 4.75565e-010 5.5971e-009 -1.16829e-009 2.22167 -0.733487 -0.20892 7.71847e-014 1.49051e-015 -1.41996e-012 -37.2914 53.4984 -26.2188 23.1715 -17.6243 -47.0868 0.00412649 -1.83442 0.257902 -9.80523e-010 -8.75832e-009 6.54988e-009 -1.71233e-009 -1.51789e-008 1.13434e-008 -9.80533e-010 -8.75833e-009 6.5499e-009 -7.73091 5.47488 -0.417314 -9.80524e-010 -8.75833e-009 6.54989e-009 -2.90554 0.965183 -0.102902 -9.80525e-010 -8.75832e-009 6.54988e-009 -10.2786 0.731801 -0.0259123 -9.80516e-010 -8.75832e-009 6.54986e-009 -2.22167 -0.733487 0.20892 -2.03217e-016 0 -3.88251e-019 1.57234 -37.0496 15.6282 -0.0707459 21.5905 0.235807 0.0478515 9.82645 -4.54808 2.03217e-016 0 3.88251e-019 -4.49205 -52.1583 -9.56585 0.358379 38.852 -0.390751 -2.49589 24.7768 8.27351 
58.5851 108.413 106.113 14.3653 18.3611 -49.9592 -6.78561 -30.8306 -4.66082 3.50337 8.6487 -0.91574 -4.77906 17.0828 0.0336797 10.5352 -20.2274 2.00621 -0 0 0 -0 0 0 -1.11623e-013 4.38687e-013 -1.51407e-012 86.6932 34.5528 -19.738 -21.7616 -15.4044 43.1462 -0.0154425 -3.58234 -0.504108 1.95541e-009 4.44963e-009 -7.55645e-010 3.38955e-009 7.72158e-009 -1.31863e-009 1.95541e-009 4.44964e-009 -7.55648e-010 7.73091 5.47488 0.417314 1.95541e-009 4.44963e-009 -7.55645e-010 2.90554 0.965183 0.102902 1.95542e-009 4.44963e-009 -7.55643e-010 10.2786 0.731801 0.0259123 1.95541e-009 4.44963e-009 -7.55637e-010 2.22167 -0.733487 -0.20892 -1.11691e-013 4.38686e-013 -1.51433e-012 -36.9795 52.6207 -24.7262 23.1272 -17.5493 -46.9573 0.00548254 -2.11509 0.297398 -1.14677e-010 -7.10896e-009 5.98744e-009 -2.15689e-010 -1.23244e-008 1.03716e-008 -1.14685e-010 -7.10897e-009 5.98746e-009 -7.73091 5.47488 -0.417314 -1.14677e-010 -7.10897e-009 5.98745e-009 -2.90554 0.965183 -0.102902 -1.14681e-010 -7.10896e-009 5.98744e-009 -10.2786 0.731801 -0.0259123 -1.1467e-010 -7.10896e-009 5.98743e-009 -2.22167 -0.733487 0.20892 -2.03217e-016 0 -3.88251e-019 1.21224 -36.7459 15.1111 -0.0702104 21.5518 0.241141 -0.105885 9.32874 -3.45578 2.03217e-016 0 3.88251e-019 -4.5647 -51.7286 -9.25525 0.378326 39.8728 -0.417907 -2.43685 25.4778 7.84517 
